<mxfile host="app.diagrams.net" agent="Mozilla/5.0 (X11; Linux x86_64) AppleWebKit/537.36 (KHTML, like Gecko) Chrome/127.0.0.0 Safari/537.36" version="24.7.5">
  <diagram name="Page-1" id="e7e014a7-5840-1c2e-5031-d8a46d1fe8dd">
    <mxGraphModel dx="1687" dy="1066" grid="1" gridSize="10" guides="1" tooltips="1" connect="1" arrows="1" fold="1" page="1" pageScale="1" pageWidth="350" pageHeight="200" background="none" math="0" shadow="0">
      <root>
        <mxCell id="0" />
        <mxCell id="1" parent="0" />
        <mxCell id="eOAKwcTZS99YKjh42Vy_-94" value="" style="group" vertex="1" connectable="0" parent="1">
          <mxGeometry x="120" y="100" width="1170" height="190" as="geometry" />
        </mxCell>
        <mxCell id="eOAKwcTZS99YKjh42Vy_-46" style="edgeStyle=orthogonalEdgeStyle;rounded=0;orthogonalLoop=1;jettySize=auto;html=1;entryX=0;entryY=0.5;entryDx=0;entryDy=0;" edge="1" parent="eOAKwcTZS99YKjh42Vy_-94" source="eOAKwcTZS99YKjh42Vy_-41" target="eOAKwcTZS99YKjh42Vy_-43">
          <mxGeometry relative="1" as="geometry" />
        </mxCell>
        <mxCell id="eOAKwcTZS99YKjh42Vy_-41" value="" style="ellipse;shape=startState;fillColor=#FFFFFF;strokeColor=default;" vertex="1" parent="eOAKwcTZS99YKjh42Vy_-94">
          <mxGeometry y="11.097457627118644" width="41.927710843373504" height="44.389830508474574" as="geometry" />
        </mxCell>
        <mxCell id="eOAKwcTZS99YKjh42Vy_-83" style="edgeStyle=orthogonalEdgeStyle;rounded=0;orthogonalLoop=1;jettySize=auto;html=1;entryX=0;entryY=0.5;entryDx=0;entryDy=0;" edge="1" parent="eOAKwcTZS99YKjh42Vy_-94" source="eOAKwcTZS99YKjh42Vy_-42" target="eOAKwcTZS99YKjh42Vy_-45">
          <mxGeometry relative="1" as="geometry" />
        </mxCell>
        <mxCell id="eOAKwcTZS99YKjh42Vy_-42" value="Diagram preview&#xa;opened in IDE" style="fontSize=15;" vertex="1" parent="eOAKwcTZS99YKjh42Vy_-94">
          <mxGeometry x="361.9248192771085" width="195.66265060240968" height="66.58474576271186" as="geometry" />
        </mxCell>
        <mxCell id="eOAKwcTZS99YKjh42Vy_-48" style="edgeStyle=orthogonalEdgeStyle;rounded=0;orthogonalLoop=1;jettySize=auto;html=1;entryX=0;entryY=0.5;entryDx=0;entryDy=0;" edge="1" parent="eOAKwcTZS99YKjh42Vy_-94" source="eOAKwcTZS99YKjh42Vy_-43" target="eOAKwcTZS99YKjh42Vy_-42">
          <mxGeometry relative="1" as="geometry" />
        </mxCell>
        <mxCell id="eOAKwcTZS99YKjh42Vy_-43" value="&lt;span style=&quot;font-size: 15px;&quot;&gt;Open diagram&lt;/span&gt;&lt;div&gt;&lt;span style=&quot;font-size: 15px;&quot;&gt;in IDE&lt;/span&gt;&lt;/div&gt;" style="rounded=1;whiteSpace=wrap;html=1;" vertex="1" parent="eOAKwcTZS99YKjh42Vy_-94">
          <mxGeometry x="101.92084337349401" y="3.699152542372886" width="167.71084337349401" height="59.186440677966104" as="geometry" />
        </mxCell>
        <mxCell id="eOAKwcTZS99YKjh42Vy_-44" value="" style="ellipse;shape=endState;fillColor=#FFFFFF;strokeColor=#000000;" vertex="1" parent="eOAKwcTZS99YKjh42Vy_-94">
          <mxGeometry x="1.9222891566266043" y="133.79363196125917" width="41.927710843373504" height="44.389830508474574" as="geometry" />
        </mxCell>
        <mxCell id="eOAKwcTZS99YKjh42Vy_-84" value="yes" style="edgeStyle=orthogonalEdgeStyle;rounded=0;orthogonalLoop=1;jettySize=auto;html=1;fontSize=15;" edge="1" parent="eOAKwcTZS99YKjh42Vy_-94" source="eOAKwcTZS99YKjh42Vy_-45" target="eOAKwcTZS99YKjh42Vy_-53">
          <mxGeometry relative="1" as="geometry" />
        </mxCell>
        <mxCell id="eOAKwcTZS99YKjh42Vy_-86" value="no" style="edgeStyle=orthogonalEdgeStyle;rounded=0;orthogonalLoop=1;jettySize=auto;html=1;fontSize=15;" edge="1" parent="eOAKwcTZS99YKjh42Vy_-94" source="eOAKwcTZS99YKjh42Vy_-45" target="eOAKwcTZS99YKjh42Vy_-78">
          <mxGeometry relative="1" as="geometry" />
        </mxCell>
        <mxCell id="eOAKwcTZS99YKjh42Vy_-45" value="User wants toÂ &#xa;modify diagram?" style="rhombus;fillColor=#FFFFFF;strokeColor=#000000;fontSize=15;" vertex="1" parent="eOAKwcTZS99YKjh42Vy_-94">
          <mxGeometry x="661.9206024096387" width="237.5903614457832" height="66.58474576271186" as="geometry" />
        </mxCell>
        <mxCell id="eOAKwcTZS99YKjh42Vy_-88" style="edgeStyle=orthogonalEdgeStyle;rounded=0;orthogonalLoop=1;jettySize=auto;html=1;entryX=1;entryY=0.5;entryDx=0;entryDy=0;" edge="1" parent="eOAKwcTZS99YKjh42Vy_-94" source="eOAKwcTZS99YKjh42Vy_-55" target="eOAKwcTZS99YKjh42Vy_-78">
          <mxGeometry relative="1" as="geometry" />
        </mxCell>
        <mxCell id="eOAKwcTZS99YKjh42Vy_-55" value="New diagram" style="fontSize=15;" vertex="1" parent="eOAKwcTZS99YKjh42Vy_-94">
          <mxGeometry x="975.6548192771085" y="122.69808716707026" width="195.66265060240968" height="66.58474576271186" as="geometry" />
        </mxCell>
        <mxCell id="eOAKwcTZS99YKjh42Vy_-90" style="edgeStyle=orthogonalEdgeStyle;rounded=0;orthogonalLoop=1;jettySize=auto;html=1;entryX=1;entryY=0.5;entryDx=0;entryDy=0;" edge="1" parent="eOAKwcTZS99YKjh42Vy_-94" source="eOAKwcTZS99YKjh42Vy_-78" target="eOAKwcTZS99YKjh42Vy_-89">
          <mxGeometry relative="1" as="geometry" />
        </mxCell>
        <mxCell id="eOAKwcTZS99YKjh42Vy_-78" value="&lt;span style=&quot;font-size: 15px;&quot;&gt;User generates SVG&lt;/span&gt;&lt;div&gt;&lt;span style=&quot;font-size: 15px;&quot;&gt;with extension&lt;/span&gt;&lt;/div&gt;" style="rounded=1;whiteSpace=wrap;html=1;" vertex="1" parent="eOAKwcTZS99YKjh42Vy_-94">
          <mxGeometry x="696.8603614457832" y="126.39723970944313" width="167.71084337349401" height="59.186440677966104" as="geometry" />
        </mxCell>
        <mxCell id="eOAKwcTZS99YKjh42Vy_-87" style="edgeStyle=orthogonalEdgeStyle;rounded=0;orthogonalLoop=1;jettySize=auto;html=1;entryX=0.5;entryY=0;entryDx=0;entryDy=0;" edge="1" parent="eOAKwcTZS99YKjh42Vy_-94" source="eOAKwcTZS99YKjh42Vy_-53" target="eOAKwcTZS99YKjh42Vy_-55">
          <mxGeometry relative="1" as="geometry" />
        </mxCell>
        <mxCell id="eOAKwcTZS99YKjh42Vy_-53" value="&lt;span style=&quot;font-size: 15px;&quot;&gt;User makes changes&lt;/span&gt;&lt;div&gt;&lt;span style=&quot;font-size: 15px;&quot;&gt;to the diagram&lt;/span&gt;&lt;/div&gt;" style="rounded=1;whiteSpace=wrap;html=1;" vertex="1" parent="eOAKwcTZS99YKjh42Vy_-94">
          <mxGeometry x="989.6303614457833" y="3.6972397094431244" width="167.71084337349401" height="59.186440677966104" as="geometry" />
        </mxCell>
        <mxCell id="eOAKwcTZS99YKjh42Vy_-92" style="edgeStyle=orthogonalEdgeStyle;rounded=0;orthogonalLoop=1;jettySize=auto;html=1;entryX=1;entryY=0.5;entryDx=0;entryDy=0;" edge="1" parent="eOAKwcTZS99YKjh42Vy_-94" source="eOAKwcTZS99YKjh42Vy_-89" target="eOAKwcTZS99YKjh42Vy_-91">
          <mxGeometry relative="1" as="geometry" />
        </mxCell>
        <mxCell id="eOAKwcTZS99YKjh42Vy_-89" value="SVG of diagram for&#xa;embedding" style="fontSize=15;" vertex="1" parent="eOAKwcTZS99YKjh42Vy_-94">
          <mxGeometry x="361.9248192771085" y="122.69808716707026" width="195.66265060240968" height="66.58474576271186" as="geometry" />
        </mxCell>
        <mxCell id="eOAKwcTZS99YKjh42Vy_-93" style="edgeStyle=orthogonalEdgeStyle;rounded=0;orthogonalLoop=1;jettySize=auto;html=1;entryX=1;entryY=0.5;entryDx=0;entryDy=0;" edge="1" parent="eOAKwcTZS99YKjh42Vy_-94" source="eOAKwcTZS99YKjh42Vy_-91" target="eOAKwcTZS99YKjh42Vy_-44">
          <mxGeometry relative="1" as="geometry" />
        </mxCell>
        <mxCell id="eOAKwcTZS99YKjh42Vy_-91" value="&lt;span style=&quot;font-size: 15px;&quot;&gt;User embeds diagram&lt;/span&gt;&lt;div&gt;&lt;span style=&quot;font-size: 15px;&quot;&gt;in documentation&lt;/span&gt;&lt;/div&gt;" style="rounded=1;whiteSpace=wrap;html=1;" vertex="1" parent="eOAKwcTZS99YKjh42Vy_-94">
          <mxGeometry x="101.92036144578326" y="126.39723970944313" width="167.71084337349401" height="59.186440677966104" as="geometry" />
        </mxCell>
      </root>
    </mxGraphModel>
  </diagram>
</mxfile>
